<?xml version="1.0" encoding="UTF-8" standalone="no"?>
<!-- Created with Inkscape (http://www.inkscape.org/) -->

<svg
   width="297mm"
   height="210mm"
   viewBox="0 0 297 210"
   version="1.1"
   id="svg1"
   inkscape:version="1.4.2 (f4327f4, 2025-05-13)"
   sodipodi:docname="TesteInkScape.svg"
   xml:space="preserve"
   xmlns:inkscape="http://www.inkscape.org/namespaces/inkscape"
   xmlns:sodipodi="http://sodipodi.sourceforge.net/DTD/sodipodi-0.dtd"
   xmlns="http://www.w3.org/2000/svg"
   xmlns:svg="http://www.w3.org/2000/svg"><sodipodi:namedview
     id="namedview1"
     pagecolor="#505050"
     bordercolor="#eeeeee"
     borderopacity="1"
     inkscape:showpageshadow="0"
     inkscape:pageopacity="0"
     inkscape:pagecheckerboard="0"
     inkscape:deskcolor="#505050"
     inkscape:document-units="mm"
     inkscape:zoom="0.70710678"
     inkscape:cx="521.8448"
     inkscape:cy="422.14275"
     inkscape:window-width="1600"
     inkscape:window-height="877"
     inkscape:window-x="-8"
     inkscape:window-y="-8"
     inkscape:window-maximized="1"
     inkscape:current-layer="layer8" /><defs
     id="defs1"><inkscape:path-effect
       effect="fillet_chamfer"
       id="path-effect10"
       is_visible="true"
       lpeversion="1"
       nodesatellites_param="F,0,0,1,0,66.785161,0,1 @ F,0,0,1,0,0,0,1 @ F,0,0,1,0,89.803911,0,1 @ F,0,1,1,0,89.803911,0,1"
       radius="0"
       unit="px"
       method="auto"
       mode="F"
       chamfer_steps="1"
       flexible="false"
       use_knot_distance="true"
       apply_no_radius="true"
       apply_with_radius="true"
       only_selected="false"
       hide_knots="false" /></defs><g
     inkscape:groupmode="layer"
     id="layer4"
     inkscape:label="Cabeça"
     style="display:inline"><g
       inkscape:label="Base"
       inkscape:groupmode="layer"
       id="layer1"><path
         style="opacity:1;fill:#a05a2c;stroke:none;stroke-width:0.202131;stroke-opacity:1"
         d="m 128.56581,18.153759 c -3.31152,1.921573 -4.88662,6.320713 -5.45755,10.106552 -1.21381,8.04866 0.0666,17.29525 4.75008,23.95254 3.95593,5.62317 10.85325,9.85273 17.68648,10.61189 5.23872,0.58201 11.33987,-1.18219 15.01444,-4.96114 4.41759,-4.54308 8.63755,-14.19237 5.45652,-18.21039 -1.93982,-2.45021 -0.51141,-6.55038 -1.10315,-9.77585 -0.67769,-3.693938 0.14555,-8.576476 -2.79306,-10.915077 -8.75405,-6.966651 -23.87707,-6.423617 -33.55376,-0.808525 z"
         id="path1"
         sodipodi:nodetypes="aaaaasaaa" /><path
         style="opacity:1;fill:#a05a2c;stroke:none;stroke-width:0.159666;stroke-opacity:1"
         d="m 124.74772,35.128961 c -0.41017,-1.31956 -1.01961,-2.95056 -2.28931,-3.43121 -1.32893,-0.50307 -3.22488,-0.006 -4.10497,1.13028 -1.51251,1.95203 -0.83558,5.05377 -0.23682,7.46793 0.39724,1.60166 1.06053,3.43088 2.44719,4.27893 1.24293,0.76016 3.30779,1.19849 4.3418,0.16147 2.23605,-2.24257 0.79091,-6.555 -0.15789,-9.6074 z"
         id="path2"
         sodipodi:nodetypes="aaaaaaa" /><path
         style="opacity:1;fill:#000000;stroke:none;stroke-width:0.202131;stroke-opacity:1"
         d="m 122.66066,31.413901 c 0,0 2.85974,3.28732 3.69522,5.26067 0.52002,1.22829 0.23054,2.70216 0.75036,3.93053 0.58981,1.39375 1.23002,3.09138 2.60846,3.71614 0.80746,0.36597 1.94957,0.26502 2.64417,-0.28586 0.56372,-0.44708 1.21746,-2.55135 0.71464,-2.03673 -1.02063,1.04459 -1.71621,1.20856 -2.53698,0.85757 -0.54383,-0.23256 -0.69458,-1.01911 -0.75037,-1.60794 -0.1968,-2.07693 0.91434,-4.07574 1.53437,-6.06771 0.57558,-1.84917 2.02403,-5.44607 2.02403,-5.44607 l 4.18065,-2.572712 c 0,0 4.44029,-2.300212 6.86056,-2.394049 0.46894,-0.01818 1.04591,0.01193 1.36118,0.359543 0.42417,0.467674 0.39411,1.244914 0.30319,1.869713 -0.0781,0.536773 -0.41371,1.00944 -0.70745,1.465455 -0.14248,0.22119 -0.67829,0.40811 -0.50533,0.60639 0.62678,0.71849 1.79373,-0.80196 2.42558,-1.515985 0.36955,-0.417613 0.46891,-1.011936 0.70746,-1.515983 0.18034,-0.38107 0.27521,-0.818144 0.54719,-1.140271 0.37186,-0.440435 0.86227,-0.824216 1.41158,-0.99892 0.73839,-0.234838 1.57443,-0.194267 2.32451,0 0.49812,0.129007 0.98696,0.38426 1.34958,0.749321 0.37207,0.374571 0.62888,0.878337 0.75953,1.38987 0.20009,0.783376 0.20785,1.370094 0,2.425578 -0.22216,1.12819 1.80946,-1.123859 2.58664,-1.842655 0.61266,-0.56665 1.29928,-0.897139 1.6071,-1.919721 0.35203,-0.485671 0.68876,-0.33061 1.0364,-0.254984 1.25957,0.274003 2.05089,1.564195 3.03197,2.400306 0.73044,0.622508 1.64811,1.25608 2.12237,1.945514 0.1445,0.21005 0.56788,-4.141396 0.3032,-6.190268 -0.25798,-1.997122 -0.55701,-4.191664 -1.81918,-5.760736 -1.94858,-2.422391 -5.11502,-3.730998 -8.08524,-4.649016 -5.39136,-1.666333 -11.32866,-2.3380076 -16.87795,-1.313853 -4.94955,0.913469 -10.66484,2.411356 -13.64386,6.468196 -2.80256,3.816544 -1.96358,14.068667 -1.96358,14.068667 z"
         id="path3"
         sodipodi:nodetypes="caaaasaaaccaaaaaaaaaaaasacaasaaaaac" /><path
         style="opacity:1;fill:none;stroke:#000000;stroke-width:0.355242;stroke-dasharray:none;stroke-opacity:1"
         d="m 152.1522,41.719541 c 0,0 3.6654,-0.42369 4.68926,0.78611 0.83101,0.98191 0.83432,2.87996 0,3.85906 -0.87631,1.0284 -2.70035,1.00546 -4.002,0.64318 -0.3908,-0.10877 -0.92902,-0.78611 -0.92902,-0.78611"
         id="path4"
         sodipodi:nodetypes="caaac" /><path
         style="opacity:1;fill:none;fill-opacity:1;stroke:#000000;stroke-width:0.813618;stroke-dasharray:none;stroke-opacity:1"
         d="m 134.23786,34.486861 c 0,0 2.39647,-2.41946 6.54486,-3.1766 2.41565,-0.44089 7.28345,1.10414 7.28345,1.10414"
         id="path14"
         sodipodi:nodetypes="csc" /><path
         style="opacity:1;fill:none;fill-opacity:1;stroke:#000000;stroke-width:0.813618;stroke-dasharray:none;stroke-opacity:1"
         d="m 134.23786,34.486861 c 0,0 2.39647,-2.41946 6.54486,-3.1766 2.41565,-0.44089 7.28345,1.10414 7.28345,1.10414"
         id="path15"
         sodipodi:nodetypes="csc" /><path
         style="opacity:1;fill:none;fill-opacity:1;stroke:#000000;stroke-width:0.813618;stroke-dasharray:none;stroke-opacity:1"
         d="m 134.23786,34.486861 c 0,0 2.39647,-2.41946 6.54486,-3.1766 2.41565,-0.44089 7.28345,1.10414 7.28345,1.10414"
         id="path16"
         sodipodi:nodetypes="csc" /><path
         style="opacity:1;fill:none;fill-opacity:1;stroke:#000000;stroke-width:0.813618;stroke-dasharray:none;stroke-opacity:1"
         d="m 166.24362,34.411061 c 0,0 -2.39647,-2.41946 -6.54486,-3.1766 -2.41565,-0.44089 -7.28345,1.10414 -7.28345,1.10414"
         id="path13"
         sodipodi:nodetypes="csc" /></g><g
       inkscape:groupmode="layer"
       id="layer2"
       inkscape:label="Olhos"
       inkscape:highlight-color="#ffffff"><path
         style="opacity:1;fill:#ffffff;fill-opacity:1;stroke:none;stroke-width:0.202131;stroke-opacity:1"
         d="m 134.93188,37.053631 c 0.84709,-2.43602 3.84442,-4.04111 6.40628,-4.33881 2.29617,-0.26683 5.34509,0.455 6.48063,2.46849 0.92511,1.64036 0.4266,4.34167 -1.01065,5.5586 -1.45309,1.23034 -3.18239,-0.42277 -5.31458,-0.46266 -1.84831,-0.0346 -4.11483,1.71147 -5.34784,0.61426 -1.47999,-1.31699 -1.65474,-2.57196 -1.21384,-3.83988 z"
         id="path6"
         sodipodi:nodetypes="aaasssa" /><path
         style="opacity:1;fill:#ffffff;fill-opacity:1;stroke:none;stroke-width:0.202131;stroke-opacity:1"
         d="m 134.93188,37.053631 c 0.84709,-2.43602 3.84442,-4.04111 6.40628,-4.33881 2.29617,-0.26683 5.34509,0.455 6.48063,2.46849 0.92511,1.64036 0.4266,4.34167 -1.01065,5.5586 -1.45309,1.23034 -3.18239,-0.42277 -5.31458,-0.46266 -1.84831,-0.0346 -4.11483,1.71147 -5.34784,0.61426 -1.47999,-1.31699 -1.65474,-2.57196 -1.21384,-3.83988 z"
         id="path7"
         sodipodi:nodetypes="aaasssa" /><path
         style="opacity:1;fill:#ffffff;fill-opacity:1;stroke:none;stroke-width:0.178709;stroke-opacity:1"
         d="m 164.57407,36.647301 c -0.74893,-2.15374 -3.39894,-3.57284 -5.66394,-3.83605 -2.03009,-0.23591 -4.72573,0.40228 -5.72969,2.18245 -0.81791,1.45028 -0.37716,3.83857 0.89355,4.91449 1.2847,1.08777 3.72322,0.46002 5.60834,0.42474 1.63414,-0.0306 2.72843,0.67936 3.81856,-0.29071 1.30849,-1.16438 1.46299,-2.27393 1.07318,-3.39492 z"
         id="path5"
         sodipodi:nodetypes="aaasssa" /><ellipse
         style="opacity:1;fill:#000000;fill-opacity:1;stroke:none;stroke-width:0.202131;stroke-opacity:1"
         id="ellipse9"
         cx="144.00357"
         cy="37.937355"
         rx="2.8551023"
         ry="2.5013728" /><ellipse
         style="opacity:1;fill:#000000;fill-opacity:1;stroke:none;stroke-width:0.197829;stroke-opacity:1"
         id="path8"
         cx="160.48883"
         cy="37.436203"
         rx="2.794337"
         ry="2.4481361" /></g><g
       inkscape:groupmode="layer"
       id="layer3"
       inkscape:label="Rosto"
       inkscape:highlight-color="#000000"><path
         style="opacity:1;fill:none;fill-opacity:1;stroke:#000000;stroke-width:0.660826;stroke-dasharray:none;stroke-opacity:1"
         d="m 159.03708,51.909661 c 0,0 -3.00349,1.38309 -4.61023,1.40946 -4.22229,0.0693 -6.27959,-1.48526 -6.27959,-1.48526"
         id="path9"
         sodipodi:nodetypes="csc" /><path
         style="opacity:1;fill:none;fill-opacity:1;stroke:#000000;stroke-width:0.355242;stroke-dasharray:none;stroke-opacity:1"
         d="m 148.44136,50.405501 c -0.0341,0.0597 -2.1e-4,0.8651 -0.32884,1.44764 -0.35951,0.6373 -1.20764,1.2144 -1.20764,1.2144"
         id="path10"
         sodipodi:nodetypes="csc" /></g></g><g
     inkscape:groupmode="layer"
     id="layer6"
     inkscape:label=" Braços2"
     transform="rotate(-21.448757,116.36012,22.941127)"
     style="display:inline"><path
       style="fill:#814824;fill-opacity:1;stroke:none;stroke-width:0.355242;stroke-opacity:1"
       d="m 137.34495,76.186831 c 2.28326,1.7526 2.6763,4.17931 3.0015,7.03922 0.37898,3.33286 -1.15507,6.61614 -2.001,9.86206 -0.63075,2.42028 -1.74534,4.7046 -2.28685,7.146409 -1.06064,4.78267 -1.79521,9.68022 -1.85807,14.57869 -0.0424,3.30395 -0.41441,10.26632 -0.41441,10.26632 l -9.45903,2.11519 c 0,0 -0.19367,-4.95899 -1.02081,-12.51131 -0.4932,-4.50314 0.0447,-8.5437 0.13574,-13.07285 0.0932,-4.636099 0.2491,-9.314069 1.14343,-13.864049 0.54925,-2.79436 0.96768,-5.79446 2.57271,-8.14691 2.01921,-2.95949 6.48154,-5.66053 10.18679,-3.41277 z"
       id="path18"
       sodipodi:nodetypes="sssssccsssss" /><path
       id="path19"
       style="fill:#814824;fill-opacity:1;stroke:none;stroke-width:0.319662"
       d="m 136.45302,131.07329 c 1e-5,4.41937 -1.86449,7.85037 -6.28385,7.85037 -4.41937,0 -8.00197,-3.5826 -8.00197,-8.00197 0,-4.41936 3.58261,-8.00196 8.00197,-8.00196 3.29741,0 10.54399,6.05707 8.64082,8.35578 -1.56754,1.89333 -2.35697,-1.32417 -2.35697,-0.20222 z"
       sodipodi:nodetypes="ssssss" /><path
       style="fill:#23517a;fill-opacity:1;stroke:none;stroke-width:0.355242;stroke-opacity:1"
       d="m 123.989,91.598771 13.18906,5.20488 c 0,0 3.40017,-8.48597 3.47172,-12.95662 0.0293,-1.82654 -0.38278,-3.72752 -1.24827,-5.33625 -0.60405,-1.12277 -1.49087,-2.20218 -2.62771,-2.7793 -1.07493,-0.5457 -2.39471,-0.62722 -3.58783,-0.4548 -1.32878,0.19203 -2.60129,0.82987 -3.6889,1.61706 -1.06292,0.76932 -1.92432,1.82323 -2.6277,2.9309 -0.83351,1.31259 -1.40326,2.79706 -1.81918,4.29528 -0.67352,2.42617 -1.06119,7.47885 -1.06119,7.47885 z"
       id="path20"
       sodipodi:nodetypes="ccaaaaaaac" /></g><g
     inkscape:groupmode="layer"
     id="layer8"
     inkscape:label="Pernas"
     style="fill:#d0afa2;fill-opacity:1"><path
       style="fill:#a05a2c;fill-opacity:1;stroke:none;stroke-width:0.389915;stroke-opacity:1"
       d="m 145.50555,154.86719 -5.33792,36.44673 -10.49872,-1.53051 -4.38327,-32.34099 4.8703,-8.08524 z"
       id="path27" /><path
       style="fill:#814824;fill-opacity:1;stroke:none;stroke-width:0.388196;stroke-opacity:1"
       d="m 169.67353,149.67616 -1.30768,36.97124 -10.45422,-0.66599 -7.77771,-32.0524 3.90277,-8.50636 z"
       id="path27-8" /><path
       style="fill:#b37d69;fill-opacity:1;stroke:none;stroke-width:0.346966;stroke-opacity:1"
       d="m 169.4216,127.67724 c 0,0 3.59049,21.73083 6.19616,33.56372 0.82618,3.75187 -6.05275,3.65256 -13.855,4.14299 -4.64276,0.29182 -13.85875,-1.38036 -13.85875,-1.38036 v -35.20197 l 14.39131,-2.40123 z"
       id="path26"
       sodipodi:nodetypes="csscccc" /><path
       style="display:inline;fill:#d0afa2;fill-opacity:1;stroke:none;stroke-width:0.348854;stroke-opacity:1"
       d="m 128.16627,111.91492 c 0,0 -2.44528,10.02998 -3.98981,15.19892 -0.93043,3.11381 -1.25927,6.00753 -1.79906,9.02828 -0.61459,3.43938 -0.96817,6.91315 -1.63842,10.35272 -0.52694,2.70411 -1.52227,5.36127 -1.87249,8.08017 -0.36712,2.85008 -2.89615,6.45751 -0.23406,8.58519 6.70468,5.35869 21.81245,6.05087 29.95977,1.85171 4.37589,-2.25537 3.13557,-7.44214 3.862,-11.27858 0.90049,-4.75576 0.19202,-9.6015 0.58515,-14.39281 0.20765,-2.53061 -1.07131,-5.49151 0.93624,-7.57516 1.84841,-1.91849 5.53832,-2.88355 8.77727,-3.03007 2.89734,-0.13106 6.92388,0.3573 6.88393,-0.15563 l -0.68964,-8.85287 -1.94936,-5.6921 z"
       id="path25"
       sodipodi:nodetypes="csaaacccaassccc" /></g><g
     inkscape:groupmode="layer"
     id="layer9"
     inkscape:label="Sapatos"><path
       style="fill:#002648;fill-opacity:1;stroke:none;stroke-width:0.355242;stroke-opacity:1"
       d="m 173.50823,189.2652 8.84324,0.96011 c 0,0 1.85184,1.15446 1.86972,2.37505 0.0239,1.6345 -0.15837,3.95766 -1.71812,4.44689 -8.30219,2.60406 -27.44069,-0.60527 -27.48984,-1.16226 l -0.30319,-3.43623 1.76865,-2.12238 z"
       id="path33"
       sodipodi:nodetypes="ccsssccc" /><path
       style="fill:#003b6e;fill-opacity:1;stroke:none;stroke-width:0.355242;stroke-opacity:1"
       d="m 145.39322,192.74453 8.84324,0.96011 c 0,0 1.85184,1.15446 1.86971,2.37504 0.0239,1.63451 -0.15836,3.95766 -1.71811,4.4469 -8.30219,2.60406 -27.4407,-0.60528 -27.48984,-1.16226 l -0.30319,-3.43624 1.76865,-2.12237 z"
       id="path36"
       sodipodi:nodetypes="ccsssccc" /><path
       id="path31"
       style="fill:#a05a2c;fill-opacity:1;stroke-width:0.369694"
       d="m 154.52576,193.2557 c 1.79069,5.66319 -8.72498,5.13709 -15.62029,5.05423 -4.25801,-0.0512 -9.11145,0.77433 -10.71888,-1.78158 -0.99558,-1.58305 0.43767,-6.26982 0.45948,-7.81747 0.0571,-4.04638 2.66105,-4.12642 9.55635,-4.04356 6.8953,0.0829 13.88422,0.87451 16.32334,8.58838 z"
       sodipodi:nodetypes="ssssss" /><path
       id="path31-2"
       style="fill:#814824;fill-opacity:1;stroke-width:0.369694"
       d="m 182.79435,189.67198 c 1.79069,5.6632 -8.72498,5.13709 -15.62029,5.05423 -4.25801,-0.0512 -9.11144,0.77434 -10.71888,-1.78157 -0.99558,-1.58305 0.43767,-6.26982 0.45948,-7.81747 0.0571,-4.04638 2.66105,-4.12642 9.55635,-4.04357 6.8953,0.0829 13.88422,0.87452 16.32334,8.58838 z"
       sodipodi:nodetypes="ssssss" /><path
       style="fill:#002648;fill-opacity:1;stroke:none;stroke-width:0.355242;stroke-opacity:1"
       d="m 178.03312,183.4763 c 0,0 -4.11874,1.24439 -4.46353,1.59195 -0.61155,0.6164 -0.56856,9.98524 -0.56856,9.98524 l -12.27957,0.5732 2.51858,-12.86504 c 0,0 3.85163,-1.52287 5.86007,-1.42928 6.92798,0.32281 8.93301,2.14393 8.93301,2.14393 z"
       id="path32"
       sodipodi:nodetypes="cscccsc" /><path
       style="fill:#003b6e;fill-opacity:1;stroke:none;stroke-width:0.355242;stroke-opacity:1"
       d="m 149.91811,186.95562 c 0,0 -4.11874,1.2444 -4.46354,1.59195 -0.61154,0.61641 -0.56855,9.98524 -0.56855,9.98524 l -12.27957,0.5732 2.51858,-12.86503 c 0,0 3.85163,-1.52287 5.86006,-1.42929 6.92799,0.32282 8.93302,2.14393 8.93302,2.14393 z"
       id="path37"
       sodipodi:nodetypes="cscccsc" /></g><g
     inkscape:groupmode="layer"
     id="layer5"
     inkscape:label="Corpo"><path
       id="path17"
       style="fill:#2c6ba0;fill-opacity:1;stroke-width:0.334647"
       d="m 169.62293,105.27208 c -3.14442,18.63906 -11.92424,14.87484 -24.16518,14.87485 -12.24094,0 -20.44905,-4.81149 -20.44905,-22.735899 0,-7.94718 0.23555,-22.08776 3.47407,-27.72999 2.33834,-4.07391 4.33568,-6.71141 6.907,-8.21721 1.89955,-1.11239 4.11235,-1.60717 7.00728,-1.60717 5.26355,0 8.90961,4.744 13.2658,8.91764 13.09603,12.54726 13.96008,26.28078 13.96008,36.497779 z"
       sodipodi:nodetypes="cssssssc" /><path
       style="fill:#a05a2c;fill-opacity:1;stroke:none;stroke-width:0.355242;stroke-opacity:1"
       d="m 136.31031,58.320161 c 0,0 1.46181,7.75037 4.002,10.50523 1.16289,1.26116 2.97094,1.84149 4.64517,2.21539 1.84961,0.41306 3.82562,0.3327 5.68542,-0.0317 1.20896,-0.23689 2.11164,-0.75572 3.43028,-1.37569 1.92007,-0.87608 0.91519,-1.81835 -2.84472,-5.2745 -1.84077,-1.69205 -2.67354,-4.5313 -4.91415,-5.60577 -3.00963,-1.44325 -10.004,-0.43295 -10.004,-0.43295 z"
       id="path21"
       sodipodi:nodetypes="caaacsac" /></g><g
     inkscape:groupmode="layer"
     id="g24"
     inkscape:label=" Braços"
     transform="translate(1.6837978)"
     style="display:inline"><path
       style="fill:#a05a2c;fill-opacity:1;stroke:none;stroke-width:0.355242;stroke-opacity:1"
       d="m 132.48259,66.216941 c 2.28326,1.7526 2.6763,4.1793 3.0015,7.03922 0.37898,3.33286 -1.15507,6.61614 -2.00099,9.86205 -0.63076,2.42029 -1.74535,4.70461 -2.28686,7.14642 -1.06064,4.78267 -1.7952,9.68022 -1.85806,14.578689 -0.0424,3.30395 -0.41442,10.26632 -0.41442,10.26632 l -9.45903,2.11519 c 0,0 -0.19367,-4.959 -1.02081,-12.51131 -0.4932,-4.50314 0.0447,-8.543699 0.13574,-13.072859 0.0932,-4.6361 0.24909,-9.31406 1.14343,-13.86404 0.54925,-2.79436 0.96768,-5.79446 2.57271,-8.14691 2.0192,-2.95949 6.48155,-5.66052 10.18679,-3.41277 z"
       id="path22"
       sodipodi:nodetypes="sssssccsssss" /><path
       id="path23"
       style="fill:#a05a2c;stroke:none;stroke-width:0.319662"
       d="m 131.59067,121.1034 c 1e-5,4.41937 -1.86449,7.85037 -6.28386,7.85037 -4.41937,0 -8.00197,-3.58261 -8.00197,-8.00197 0,-4.41936 3.5826,-8.00196 8.00197,-8.00196 3.29741,0 10.544,6.05706 8.64083,8.35577 -1.56755,1.89333 -2.35697,-1.32416 -2.35697,-0.20221 z"
       sodipodi:nodetypes="ssssss" /><path
       style="fill:#347dbb;fill-opacity:1;stroke:none;stroke-width:0.355242;stroke-opacity:1"
       d="m 119.12664,81.628881 13.18906,5.20488 c 0,0 3.40017,-8.48597 3.47172,-12.95662 0.0293,-1.82654 -0.38278,-3.72752 -1.24827,-5.33625 -0.60405,-1.12277 -1.49087,-2.20217 -2.62771,-2.7793 -1.07493,-0.5457 -2.39471,-0.62722 -3.58783,-0.45479 -1.32878,0.19202 -2.6013,0.82986 -3.68889,1.61705 -1.06293,0.76932 -1.92433,1.82323 -2.62771,2.93089 -0.83351,1.3126 -1.40326,2.79707 -1.81918,4.29529 -0.67352,2.42617 -1.06119,7.47885 -1.06119,7.47885 z"
       id="path24"
       sodipodi:nodetypes="ccaaaaaaac" /></g></svg>
